<?xml version="1.0" encoding="UTF-8"?>
<svg id="Layer_1" data-name="Layer 1" xmlns="http://www.w3.org/2000/svg" viewBox="0 0 359 232.07">
  <defs>
    <style>
      .cls-1 {
        fill: none;
        stroke: #dbb27b;
        stroke-miterlimit: 10;
        stroke-width: 2px;
      }

      .cls-2 {
        fill: #dbb27b;
      }

      .cls-3 {
        fill: #9369a9;
      }

      .cls-4 {
        fill: #e7c27d;
      }
    </style>
  </defs>
  <g>
    <path class="cls-3" d="m.57,196.98l-.1-4.83,25.04-8.97L.1,175.06l-.1-4.61,32.16-.69.1,4.57-30.84.66,31.07,9.89v.61s-30.52,11.03-30.52,11.03l30.76-.66v.44s-32.15.69-32.15.69Z"/>
    <path class="cls-3" d="m37.57,139.43l-.64,3.14c-.33,1.64-1.63,2.5-3.27,2.16l-.82-.17c2.25,1.49,3.24,4.38,2.45,8.26-1.02,5.04-4.23,7.8-8.28,6.98-5.56-1.13-7.73-8.08-5.96-17.49-3.53-.27-7.61.38-8.4,4.26-.61,3.02,1.5,5.42,3.89,6.89l-2.79,1.81c-1.84-2.66-2.12-5.9-1.49-9.01,1.27-6.25,5.46-9.43,11.88-8.13l9.22,1.87c1.25.25,2.91.05,4.1-.51l.1-.07Zm-7.18,4.64l-6.98-1.42c-.6-.12-1.22-.2-1.91-.3-1.19,6.76,1.39,11.9,6.65,12.97,3.53.72,6.22-.8,6.87-3.99.7-3.45-1.57-6.64-4.62-7.26Z"/>
    <path class="cls-3" d="m22.09,114.05c.49-1.18,1.05-2.18,1.76-3.07-3.27-4.84-3.21-6.68-2.77-7.73.56-1.34,2.1-1.6,3.82-1.5l1.55,3.6c-2.35-.98-4.31-1.32-4.7-.39-.36.85.64,2.79,2.41,5.63,2.63-3,6.31-3.94,9.96-2.41,4.79,2,6.39,7.05,4.07,12.61-.78,1.87-1.87,3.46-3.14,4.55,2.38.47,4.33-1.48,6.45-5.17,1.49-2.66,4.32-8.29,8.95-6.36,3.81,1.59,4.85,6.65,2.44,12.41-2.47,5.92-6.68,8.12-10.21,6.64-2.35-.98-5.05-3.87-7.86-7.29-2.43,1.94-5.44,2.54-8.49,1.27-4.83-2.02-6.56-7.22-4.24-12.78Zm11.19,9.49c-2.18-2.77-4.37-5.73-6.23-8.23-1.01-1.23-1.81-2.28-2.49-3.28-.93.52-1.67,1.26-2.09,2.27-1.27,3.04,1.1,6.37,5.52,8.22,1.91.8,3.72,1.13,5.29,1.02Zm4.51-2.93c1.25-3-.94-6.3-5.4-8.16-2.8-1.17-5.43-1.36-7.33-.59,2.67,3.98,5.5,7.92,8.52,11.66,2.01-.25,3.52-1.24,4.22-2.91Zm14.28,6.3c1.88-4.5.58-7.76-2.35-8.98-3.49-1.46-6.43,1.03-8.47,4.42-1.42,2.36-3.27,4.3-5.9,3.39,2.82,3.28,5.53,5.93,7.55,6.78,3.29,1.37,7.21-.94,9.16-5.61Z"/>
    <path class="cls-3" d="m54.31,89.33c3.65,3.62,4.38,7.19,2.32,10.25-2.82,4.2-9,4.64-14.88.7-5.91-3.98-7.7-9.9-4.71-14.35,2.21-3.28,5.45-3.54,9.57-1.78l-9.7-6.53c-1.09-.74-2.67-1.16-3.96-1.13l-.12.02,1.79-2.66c.91-1.35,2.43-1.65,3.82-.72l21.08,14.18c1.06.71,2.67,1.16,3.95,1.06h.16l-1.79,2.66c-.93,1.39-2.46,1.68-3.84.75l-3.68-2.48Zm-4.41-2.97c-5.35-3.39-9.8-3.78-11.66-1.01-1.99,2.95.55,7.37,6.57,11.41,5.43,3.65,9.95,4.58,11.79,1.84,1.86-2.77-.05-8.03-6.59-12.17l-.11-.07Z"/>
    <path class="cls-3" d="m84.02,67.21l-2.28,2.26c-1.19,1.17-2.74,1.17-3.92-.02l-.59-.59c1.04,2.49.25,5.44-2.56,8.22-3.65,3.62-7.85,4.12-10.76,1.18-3.99-4.03-1.93-11.01,4.79-17.84-2.79-2.19-6.54-3.92-9.35-1.14-2.19,2.16-1.77,5.34-.6,7.89l-3.32-.05c-.04-3.23,1.52-6.08,3.77-8.31,4.53-4.48,9.78-4.8,14.39-.14l6.61,6.69c.9.91,2.38,1.66,3.69,1.85h.12Zm-8.55-.14l-5.01-5.06c-.43-.44-.9-.84-1.42-1.31-4.75,4.95-5.47,10.66-1.69,14.47,2.54,2.56,5.61,2.8,7.92.51,2.5-2.47,2.4-6.39.2-8.61Z"/>
    <path class="cls-3" d="m89.95,62.9v-.16c.03-1.28-.51-2.85-1.27-3.87l-14.3-19.5c-.78-1.06-2.08-2.02-3.34-2.4l-.12-.02,2.59-1.9c1.35-.99,2.88-.75,3.87.6l15.75,21.49c.99,1.35.75,2.88-.6,3.87l-2.59,1.9Z"/>
    <path class="cls-3" d="m117.43,42.76c-.79,2.81-2.76,5.2-5.59,6.71-5.74,3.05-12.23.98-15.55-5.27-3.12-5.86-1.94-12.46,3.8-15.51,5.28-2.81,10.88-.71,14.3,5.74l.23.43-14.09,7.49c.04.08.08.15.12.23,2.93,5.51,7.45,8.39,10.86,6.57,2.29-1.22,3.2-3.99,2.67-7.44l3.25,1.06Zm-7.08-6.19c-3.44-6.29-6.95-9.15-10.06-7.5-4,2.12-1.94,8.9,0,12.84l10.05-5.34Z"/>
    <path class="cls-3" d="m126.79,41.75l.05-.15c.47-1.2.48-2.85.12-4.07l-4.28-14.36c-.38-1.26-1.28-2.6-2.34-3.39l-.11-.06,3.07-.92c1.6-.48,2.97.26,3.44,1.86l.55,1.85c.23-3.37,2.83-6.21,6.49-7.3,4.89-1.46,7.91,1.31,9.35,6.16l3.1,10.4c.36,1.22,1.32,2.59,2.37,3.33l.12.1-3.12.93c-1.56.46-2.93-.27-3.4-1.88l-3.58-12.01c-1.14-3.83-3.61-5.48-6.81-4.53-3.16.94-4.73,3.66-3.87,7.02l3.76,12.64c.48,1.6-.26,2.97-1.86,3.44l-3.07.92Z"/>
    <path class="cls-3" d="m177.79,32.01l-3.2.28c-1.66.15-2.85-.85-3-2.52l-.07-.83c-.79,2.58-3.28,4.35-7.22,4.69-5.12.45-8.68-1.84-9.04-5.96-.49-5.65,5.55-9.71,15.08-10.68-.74-3.46-2.53-7.19-6.47-6.85-3.07.27-4.77,2.98-5.5,5.69l-2.53-2.16c2.03-2.52,5.06-3.71,8.21-3.98,6.35-.56,10.59,2.56,11.17,9.08l.82,9.37c.11,1.27.77,2.8,1.65,3.78l.1.08Zm-6.49-5.57l-.62-7.1c-.05-.61-.15-1.22-.26-1.92-6.82.77-11.02,4.72-10.55,10.06.31,3.59,2.53,5.73,5.77,5.45,3.5-.31,5.93-3.39,5.65-6.5Z"/>
    <path class="cls-3" d="m188.72,0c2.19.11,3.49,1.58,3.45,4.09-.04,3.47-2.72,5.98-5.09,5.91.91-.62,1.71-1.59,1.68-2.78-.13,0-.22-.01-.35-.02-2.24-.11-3.57-1.67-3.46-3.82.11-2.15,1.58-3.49,3.78-3.38Z"/>
    <path class="cls-3" d="m211.61,31.82c1.05-5.66-10.72-8.51-9.42-15.55.65-3.5,4.03-5.34,8.39-4.53,3.16.58,6.17,2.44,7.71,4.73l-2.72,1.91c-.51-3.27-2.52-5.74-5.02-6.2-2.03-.37-3.94.75-4.3,2.74-1.01,5.49,10.8,8.3,9.44,15.69-.71,3.85-4.29,5.56-8.79,4.73-3.16-.58-6.18-2.35-7.8-4.75l2.72-1.91c.54,3.36,2.52,5.74,5.02,6.2,2.33.43,4.36-.85,4.77-3.05Z"/>
    <path class="cls-3" d="m252.18,14.88l4.27,2.27-4.38,26.25,19.48-18.23,4.08,2.16-15.09,28.42-4.04-2.14,14.47-27.26-23.79,22.31-.54-.29,5.27-32.05-14.43,27.18-.39-.21,15.09-28.42Z"/>
    <path class="cls-3" d="m267.61,61.35l.15-.05c1.25-.31,2.6-1.26,3.38-2.27l9.21-11.82c.81-1.04,1.37-2.55,1.4-3.87l-.02-.12,2.53,1.97c1.32,1.03,1.51,2.57.48,3.88l-10.72,13.76c-1.03,1.32-2.57,1.51-3.89.48l-2.53-1.97Zm22.95-23.45c1.35,1.05,1.62,2.71.51,4.13-1.03,1.32-2.73,1.5-4.08.44-1.42-1.11-1.59-2.75-.57-4.06,1.11-1.42,2.71-1.62,4.13-.51Z"/>
    <path class="cls-3" d="m278.46,69.71l.16-.03c1.28-.13,2.76-.87,3.68-1.75l10.83-10.36c.95-.91,1.73-2.33,1.95-3.63v-.12s2.22,2.32,2.22,2.32c1.16,1.21,1.12,2.76-.09,3.92l-1.4,1.34c3.11-1.33,6.82-.32,9.46,2.45,3.52,3.68,2.44,7.64-1.21,11.14l-7.85,7.5c-.92.88-1.7,2.36-1.88,3.63l-.03.15-2.25-2.35c-1.12-1.18-1.09-2.73.12-3.88l9.05-8.66c2.89-2.77,3.24-5.71.93-8.13-2.28-2.38-5.42-2.55-8.02-.24l-9.53,9.12c-1.21,1.15-2.76,1.12-3.92-.09l-2.22-2.32Z"/>
    <path class="cls-3" d="m311.58,106.98c-2.87-.57-5.4-2.35-7.12-5.06-3.49-5.49-1.92-12.12,4.05-15.92,5.6-3.56,12.27-2.91,15.76,2.58,3.21,5.05,1.55,10.79-4.61,14.71l-.41.26-8.56-13.47c-.07.05-.15.09-.22.14-5.27,3.35-7.78,8.08-5.71,11.34,1.39,2.19,4.23,2.88,7.63,2.08l-.8,3.32Zm5.63-7.54c6-3.92,8.58-7.65,6.69-10.61-2.43-3.82-9.02-1.24-12.8,1l6.11,9.61Z"/>
    <path class="cls-3" d="m313.09,116.25l.15.03c1.24.35,2.88.19,4.06-.29l13.87-5.69c1.22-.5,2.46-1.53,3.13-2.66l.05-.11,1.22,2.97c.63,1.55.03,2.98-1.51,3.61l-1.34.55c2.99-.23,5.51,1.16,6.56,3.72.97,2.36.33,4.85-1.69,6.77l-5.15-2.02c3.7-1.52,5.1-4.13,4.31-6.05-.78-1.91-3.46-2.52-6.6-1.38l-12.24,5.02c-1.55.63-2.98.03-3.61-1.51l-1.22-2.97Z"/>
    <path class="cls-3" d="m326.23,159.56l-.67-3.14c-.35-1.63.49-2.94,2.13-3.29l.82-.17c-2.66-.46-4.72-2.72-5.55-6.59-1.08-5.03.76-8.84,4.8-9.7,5.55-1.19,10.32,4.31,12.46,13.65,3.35-1.17,6.82-3.39,5.99-7.26-.65-3.01-3.54-4.36-6.32-4.76l1.83-2.77c2.75,1.7,4.3,4.56,4.97,7.66,1.34,6.23-1.23,10.83-7.63,12.2l-9.2,1.97c-1.25.27-2.68,1.12-3.55,2.11l-.07.11Zm4.72-7.13l6.96-1.49c.6-.13,1.19-.3,1.87-.49-1.61-6.67-6.04-10.35-11.28-9.22-3.52.76-5.38,3.22-4.7,6.4.74,3.44,4.09,5.46,7.14,4.81Z"/>
    <path class="cls-3" d="m326.68,166.85l.14.08c1.06.73,2.67,1.11,3.94,1.03l24.13-1.52c1.32-.08,2.82-.66,3.82-1.52l.08-.09.2,3.2c.11,1.67-.92,2.83-2.59,2.94l-26.59,1.68c-1.67.11-2.83-.92-2.94-2.59l-.2-3.2Z"/>
    <path class="cls-3" d="m330.48,193.88c5.75.37,7.18-11.65,14.33-11.2,3.55.23,5.78,3.37,5.49,7.8-.21,3.2-1.69,6.41-3.79,8.22l-2.22-2.48c3.19-.9,5.4-3.18,5.57-5.72.13-2.06-1.21-3.82-3.23-3.95-5.57-.36-6.96,11.71-14.47,11.23-3.91-.25-6.03-3.6-5.73-8.17.21-3.2,1.6-6.42,3.79-8.3l2.22,2.48c-3.28.94-5.4,3.18-5.57,5.72-.15,2.37,1.36,4.23,3.6,4.37Z"/>
  </g>
  <g>
    <polygon class="cls-1" points="172.48 62.01 151.3 97.88 153.18 139.53 176.47 178.33 195.35 137.1 199.73 100.54 172.48 62.01"/>
    <polyline class="cls-1" points="195.35 137.1 182.87 151.11 176.39 176.98 167.09 148.05 172.7 140.88 171.8 102.46 185.02 88.79 199.73 100.54"/>
    <line class="cls-1" x1="153.18" y1="139.53" x2="167.09" y2="148.05"/>
    <line class="cls-1" x1="172.7" y1="140.88" x2="182.87" y2="151.11"/>
    <line class="cls-1" x1="185.02" y1="88.79" x2="172.48" y2="62.01"/>
    <polyline class="cls-1" points="171.8 102.46 162.11 89.33 151.3 97.88"/>
    <line class="cls-1" x1="162.11" y1="89.33" x2="172.5" y2="62.73"/>
    <polygon class="cls-2" points="136.71 93.08 132.7 100.02 136.71 106.97 140.72 100.02 136.71 93.08"/>
    <polygon class="cls-2" points="214.68 127.91 209.46 136.95 214.68 145.99 219.9 136.95 214.68 127.91"/>
    <polygon class="cls-2" points="223.1 150.39 219.9 155.93 223.1 161.46 226.3 155.93 223.1 150.39"/>
    <polygon class="cls-2" points="143.92 106.97 140.72 112.5 143.92 118.04 147.11 112.5 143.92 106.97"/>
    <polygon class="cls-2" points="205.24 144.85 202.04 150.39 205.24 155.93 208.44 150.39 205.24 144.85"/>
  </g>
  <g>
    <path class="cls-4" d="m79.44,213.62c4.23-.25,8.46-.25,12.73-.25.98.05,2.02,0,3,.2.15,0,.34,0,.49.1.2.1.3.25.3.49-.05.25-.15.39-.39.39-.2.05-.44.05-.69.05-1.33.05-2.66,0-3.93.05-2.11.1-4.18.25-6.29.44-1.43.15-2.9.25-4.38.49-1.77.25-3.49.74-5.26,1.08-.34.1-.69.15-1.03.2-.29.05-.59.05-.88,0-.54-.15-.93-.49-1.03-1.03-.1-.59.15-1.03.64-1.33.79-.49,1.72-.64,2.66-.79,1.33-.2,2.7-.15,4.08-.1Z"/>
    <path class="cls-4" d="m97.44,217.9c.64-.59,1.28-1.18,1.92-1.77,2.02-1.87,4.13-3.64,6.39-5.16.49-.34.98-.64,1.52-.88.29-.1.59-.25.93-.25.93-.15,1.48.2,1.72,1.08.2.59.25,1.18.25,1.77.05.44.1.89.2,1.33.25.89.84,1.33,1.72,1.57,1.08.25,2.16.1,3.25-.1,3.1-.49,6.19-1.23,9.29-1.92.25-.1.69-.34.79,0,.1.44-.39.44-.69.54-2.56.74-5.16,1.28-7.77,1.87-1.08.25-2.16.54-3.24.59-.69,0-1.38-.05-2.02-.25-.98-.29-1.72-.94-2.11-1.92-.25-.69-.39-1.47-.44-2.21-.1-1.52-.34-1.67-1.77-1.03-.84.39-1.62.98-2.36,1.57-2.31,1.72-4.33,3.74-6.34,5.8-.54.54-1.08,1.08-1.62,1.62-.25.2-.49.44-.79.54-.69.29-1.33-.1-1.38-.84-.05-.59.1-1.13.25-1.72.69-2.56,1.62-5.06,2.61-7.57,3.05-7.72,6.93-15,11.8-21.73.2-.2.34-.44.54-.69.34-.44.74-.64,1.28-.49.54.2.93.64.98,1.18.05.54-.15.98-.34,1.43-.64,1.33-1.43,2.61-2.16,3.88-3.34,5.61-6.64,11.26-9.49,17.16-.89,1.82-1.72,3.64-2.61,5.46-.15.34-.25.69-.39,1.03,0,.05.05.1.1.1Z"/>
    <path class="cls-4" d="m133.93,211.61c-.54.25-.93.59-1.33.94-.2.15-.25.39-.25.64-.1.79-.25.98-1.03.88-.44-.1-.74.1-1.03.34-1.52,1.38-3.1,2.71-4.67,4.08-.39.34-.84.64-1.28.88-.59.29-1.18.34-1.72,0-.54-.44-.74-1.03-.64-1.67.05-.34.15-.69.3-1.03.79-1.92,2.06-3.49,3.79-4.72.89-.59,1.82-.98,2.9-.98.79,0,1.52.15,2.16.64.34.29.64.25.98-.05.44-.34.93-.69,1.43-1.03.25-.2.54-.34.84-.44.59-.15,1.08.25,1.03.88,0,.29-.15.59-.25.84-.44.93-.84,1.82-1.23,2.75-.29.69-.54,1.38-.59,2.11-.1.79.1.93.84.88.39-.05.79-.15,1.13-.25,2.51-.84,4.87-1.92,7.13-3.29.2-.1.34-.2.54-.29.15-.1.29-.05.39.05.1.15.05.29-.05.39-.29.2-.54.39-.79.59-1.43.89-2.95,1.62-4.52,2.31-.93.44-1.92.84-2.95,1.18-.39.1-.74.2-1.13.25-1.08.05-1.67-.54-1.62-1.67,0-.54.15-1.13.34-1.67.3-.98.69-1.92,1.08-2.9.05-.15.2-.29.2-.64Zm-4.82,2.16c-1.82.54-3.05,1.82-4.13,3.29,1.48-.94,2.85-2.06,4.13-3.29Z"/>
    <path class="cls-4" d="m143.52,218.24c.84-.84,1.72-1.62,2.56-2.41,1.67-1.52,3.39-3,5.31-4.23.54-.34,1.13-.64,1.77-.84,1.33-.34,2.41.44,2.46,1.82.05.69.05,1.43-.1,2.11-.05.49-.1.94,0,1.38.05.64.3.84.98.84.84,0,1.57-.25,2.36-.54,2.06-.74,4.13-1.52,6.2-2.36.2-.1.44-.2.69-.25.2-.1.44-.15.54.15.15.25-.1.39-.3.49-.15.1-.34.2-.54.29-2.31.98-4.57,1.97-6.83,2.95-.59.25-1.13.44-1.72.54-1.33.2-2.31-.39-2.75-1.67-.34-.98-.25-1.97-.15-3,0-.15,0-.25.05-.39.1-.89-.15-1.08-1.03-.79-.59.2-1.13.49-1.67.84-1.97,1.28-3.79,2.75-5.46,4.38-.93.89-1.77,1.82-2.65,2.71-.25.2-.44.44-.64.59-.79.64-1.67.29-1.87-.64-.15-.49-.1-1.03,0-1.52.84-3.54,2.36-6.74,4.43-9.69.15-.2.34-.39.49-.54.59-.49,1.18-.54,1.77-.15.54.39.74,1.03.54,1.67-.2.54-.49,1.08-.84,1.57-1.18,1.97-2.31,3.98-3.39,6-.1.15-.2.34-.3.54.05.05.05.1.1.15Z"/>
    <path class="cls-4" d="m179.02,205.02c-.34.54-.69,1.08-1.03,1.62-.98,1.47-1.92,3-2.9,4.47-.29.44-.39.84-.15,1.38.39.98-.15,1.72-1.18,1.62-.54-.05-.84.2-1.08.59-.98,1.38-2.02,2.75-3.1,4.13-.59.74-1.28,1.47-2.02,2.11-.39.34-.89.64-1.38.84-1.23.49-2.36-.1-2.66-1.33-.15-.54-.2-1.03-.15-1.57.39-2.9,1.52-5.41,3.79-7.33,1.92-1.62,4.52-1.77,6.44-.54.44.29.49.29.84-.2,1.18-1.82,2.41-3.59,3.59-5.41,1.52-2.41,3.05-4.87,4.33-7.47,1.13-2.46,2.51-4.77,4.03-7.03.34-.44.69-.93,1.08-1.33.2-.2.44-.44.79-.25.34.25.34.54.25.88-.15.39-.29.79-.49,1.13-1.52,3.25-3.15,6.44-4.77,9.59-2.95,5.75-5.46,11.7-7.82,17.75-1.18,3-2.31,6.05-3.34,9.15-.34,1.18-.79,2.36-.93,3.64,0,.3-.1.59-.49.59-.29.05-.54-.25-.54-.69.05-1.03.29-2.06.59-3.05.93-3.49,2.16-6.93,3.39-10.32,1.57-4.18,3.15-8.36,4.87-12.49.05-.15.1-.29.15-.44-.05-.05-.1-.05-.1-.05Zm-7.97,8.56c-.74,0-1.43.29-2.06.74-1.67,1.13-2.75,2.75-3.39,4.67-.1.29-.15.59-.15.89,0,.69.25.84.84.49.84-.49,1.52-1.18,2.21-1.82,1.23-1.28,2.31-2.61,3.34-4.03.15-.25.54-.44.34-.74-.15-.29-.54-.2-.89-.25-.1,0-.15.05-.25.05Z"/>
    <path class="cls-4" d="m183.35,222.13c.89-.59,1.48-1.33,2.11-2.02,2.61-2.85,5.02-5.75,7.82-8.36.49-.44.93-.84,1.47-1.23.44-.29.93-.44,1.43-.1s.54.84.44,1.38c-.25,1.03-.69,1.97-1.13,2.9-.15.34-.29.69-.49,1.13.44-.05.64-.29.84-.44,1.08-.88,2.21-1.67,3.44-2.36.3-.2.64-.34.93-.49,1.18-.44,2.21.29,2.11,1.52,0,.39-.1.79-.15,1.13-.05.25-.1.49-.1.74.05.54.2.69.74.69.59.05,1.18-.15,1.77-.29,2.11-.59,4.18-1.43,6.24-2.06.69-.2,1.33-.44,1.97-.59.2-.05.39-.1.59-.15.15,0,.29.05.34.25.05.15-.05.29-.15.34-.2.1-.39.2-.64.25-2.51.84-4.92,1.82-7.38,2.85-.69.25-1.43.49-2.11.59-1.67.29-2.75-.54-2.75-2.26v-1.03c0-.49-.1-.59-.54-.39-.34.15-.74.34-1.08.59-1.28.74-2.41,1.62-3.59,2.56-.34.25-.69.54-1.03.74-.84.49-1.57,0-1.62-.88,0-.39.1-.79.2-1.13.34-1.03.74-2.02,1.18-2.95.1-.2.15-.34.15-.59-.79.49-1.47,1.13-2.16,1.77-2.26,2.11-4.33,4.52-6.34,6.88-.54.59-1.08,1.18-1.62,1.77-.15.15-.34.34-.54.44-.84.54-1.67.34-2.16-.49-.34-.59-.44-1.23-.44-1.92,0-1.13.15-2.26.49-3.34.84-3.05,2.06-5.9,3.74-8.51.25-.34.44-.64.69-.94.69-.74,1.57-.84,2.36-.29.79.49,1.03,1.28.59,2.21-.69,1.28-1.43,2.51-2.11,3.79-1.28,2.26-2.51,4.62-3.34,7.08-.15.34-.3.69-.15,1.23Z"/>
    <path class="cls-4" d="m222.39,211.61c-.54.25-.93.59-1.33.94-.2.15-.25.39-.25.64-.1.79-.25.98-1.03.88-.44-.1-.74.1-1.03.34-1.52,1.38-3.1,2.71-4.67,4.08-.39.34-.84.64-1.28.88-.59.29-1.18.34-1.72,0-.54-.44-.74-1.03-.64-1.67.05-.34.15-.69.3-1.03.79-1.92,2.06-3.49,3.79-4.72.89-.59,1.82-.98,2.9-.98.79,0,1.52.15,2.16.64.34.29.64.25.98-.05.44-.34.93-.69,1.43-1.03.25-.2.54-.34.84-.44.59-.15,1.08.25,1.03.88,0,.29-.15.59-.25.84-.44.93-.84,1.82-1.23,2.75-.29.69-.54,1.38-.59,2.11-.1.79.1.93.84.88.39-.05.79-.15,1.13-.25,2.51-.84,4.87-1.92,7.13-3.29.2-.1.34-.2.54-.29.15-.1.29-.05.39.05.1.15.05.29-.05.39-.29.2-.54.39-.79.59-1.43.89-2.95,1.62-4.52,2.31-.93.44-1.92.84-2.95,1.18-.39.1-.74.2-1.13.25-1.08.05-1.67-.54-1.62-1.67,0-.54.15-1.13.34-1.67.29-.98.69-1.92,1.08-2.9.05-.15.2-.29.2-.64Zm-4.82,2.16c-1.82.54-3.05,1.82-4.13,3.29,1.48-.94,2.85-2.06,4.13-3.29Z"/>
    <path class="cls-4" d="m244.76,205.02c-.34.54-.69,1.08-1.03,1.62-.98,1.47-1.92,3-2.9,4.47-.29.44-.39.84-.15,1.38.39.98-.15,1.72-1.18,1.62-.54-.05-.84.2-1.08.59-.98,1.38-2.02,2.75-3.1,4.13-.59.74-1.28,1.47-2.02,2.11-.39.34-.89.64-1.38.84-1.23.49-2.36-.1-2.66-1.33-.15-.54-.2-1.03-.15-1.57.39-2.9,1.52-5.41,3.79-7.33,1.92-1.62,4.52-1.77,6.44-.54.44.29.49.29.84-.2,1.18-1.82,2.41-3.59,3.59-5.41,1.52-2.41,3.05-4.87,4.33-7.47,1.13-2.46,2.51-4.77,4.03-7.03.34-.44.69-.93,1.08-1.33.2-.2.44-.44.79-.25.34.25.34.54.25.88-.15.39-.29.79-.49,1.13-1.52,3.25-3.15,6.44-4.77,9.59-2.95,5.75-5.46,11.7-7.82,17.75-1.18,3-2.31,6.05-3.34,9.15-.34,1.18-.79,2.36-.93,3.64,0,.3-.1.59-.49.59-.3.05-.54-.25-.54-.69.05-1.03.29-2.06.59-3.05.93-3.49,2.16-6.93,3.39-10.32,1.57-4.18,3.15-8.36,4.87-12.49.05-.15.1-.29.15-.44-.05-.05-.1-.05-.1-.05Zm-7.97,8.56c-.74,0-1.43.29-2.06.74-1.67,1.13-2.75,2.75-3.39,4.67-.1.29-.15.59-.15.89,0,.69.25.84.84.49.84-.49,1.52-1.18,2.21-1.82,1.23-1.28,2.31-2.61,3.34-4.03.15-.25.54-.44.34-.74-.15-.29-.54-.2-.89-.25-.1,0-.15.05-.25.05Z"/>
    <path class="cls-4" d="m247.62,217.8c.25-3.25,1.57-5.9,4.38-7.72.49-.3,1.08-.54,1.67-.64.93-.2,1.97.2,2.41.98.49.74.39,1.72-.2,2.51-.89,1.13-2.02,1.92-3.34,2.41-.54.15-1.08.25-1.62.1-.44-.1-.64.1-.84.44-.54,1.08-.74,2.21-.59,3.44.15,1.03.84,1.48,1.87,1.18.79-.2,1.47-.59,2.16-.98,2.41-1.52,4.87-3.05,7.28-4.52.74-.44,1.47-.84,2.21-1.23.15-.1.29-.15.44-.25.15-.05.3-.05.34.1.05.15,0,.25-.1.29-.15.15-.34.29-.54.39-2.9,1.72-5.7,3.59-8.41,5.61-.84.59-1.72,1.13-2.66,1.52-.74.29-1.52.44-2.31.2-1.33-.44-1.92-1.52-2.11-2.85-.05-.29-.05-.64-.05-.98Zm3.54-3.64c1.62-.39,2.85-1.48,3-2.61-1.33.59-2.26,1.48-3,2.61Z"/>
    <path class="cls-4" d="m270.43,213.62c4.23-.25,8.46-.25,12.73-.25.98.05,2.02,0,3,.2.15,0,.34,0,.49.1.2.1.3.25.3.49-.05.25-.15.39-.39.39-.2.05-.44.05-.69.05-1.33.05-2.66,0-3.93.05-2.11.1-4.18.25-6.29.44-1.43.15-2.9.25-4.38.49-1.77.25-3.49.74-5.26,1.08-.34.1-.69.15-1.03.2-.29.05-.59.05-.88,0-.54-.15-.93-.49-1.03-1.03-.1-.59.15-1.03.64-1.33.79-.49,1.72-.64,2.66-.79,1.33-.2,2.7-.15,4.08-.1Z"/>
  </g>
</svg>