<?xml version="1.0" standalone="no"?>
<!DOCTYPE svg PUBLIC "-//W3C//DTD SVG 1.0//EN" "http://www.w3.org/TR/2001/REC-SVG-20010904/DTD/svg10.dtd">
<svg xmlns="http://www.w3.org/2000/svg" xmlns:xlink="http://www.w3.org/1999/xlink" id="body_1" width="19" height="19">

<g transform="matrix(0.037109375 0 0 0.037109375 0 0)">
	<g>
	</g>
	<g>
	</g>
	<g>
		<g>
            <path d="M247.355 106.9C 222.705 82.241 205.833 39.18 197.46 0C 189.074 39.188 172.22 82.258 147.561 106.917C 122.911 131.559 79.837006 148.431 40.665 156.821C 79.853 165.194 122.919 182.056 147.569 206.716C 172.219 231.366 189.091 274.436 197.477 313.616C 205.85 274.428 222.71701 231.358 247.363 206.699C 272.013 182.04901 315.087 165.185 354.259 156.79501C 315.08 148.422 272.014 131.551 247.355 106.9z" stroke="none" fill="#E7C27D" fill-rule="nonzero" />
            <path d="M407.471 304.339C 392.75702 289.61798 382.661 263.879 377.659 240.47499C 372.648 263.879 362.586 289.617 347.856 304.347C 333.12598 319.06097 307.392 329.14798 283.992 334.159C 307.4 339.169 333.126 349.24 347.85602 363.97C 362.58603 378.69202 372.66602 404.43 377.67603 427.83398C 382.67703 404.421 392.75702 378.692 407.47803 363.96198C 422.2 349.24 447.93802 339.15997 471.334 334.14197C 447.939 329.14 422.201 319.061 407.471 304.339z" stroke="none" fill="#E7C27D" fill-rule="nonzero" />
            <path d="M146.352 354.702C 142.145 374.35 133.697 395.965 121.33301 408.328C 108.97101 420.682 87.365005 429.148 67.72001 433.355C 87.365005 437.571 108.97101 446.01102 121.33301 458.38202C 133.697 470.74402 142.162 492.342 146.369 512C 150.572 492.342 159.024 470.745 171.392 458.374C 183.746 446.012 205.356 437.554 224.997 433.339C 205.357 429.13898 183.746 420.68298 171.384 408.31998C 159.024 395.966 150.555 374.351 146.352 354.702z" stroke="none" fill="#E7C27D" fill-rule="nonzero" />
		</g>
	</g>
</g>
</svg>